{"asset":{"version":"2.0","generator":"THREE.GLTFExporter"},"scenes":[{"nodes":[0],"name":"AuxScene"}],"scene":0,"nodes":[{"mesh":0}],"bufferViews":[{"buffer":0,"byteOffset":0,"byteLength":39276,"target":34962,"byteStride":12},{"buffer":0,"byteOffset":39276,"byteLength":39276,"target":34962,"byteStride":12}],"buffers":[{"byteLength":78552,"uri":"data:application/octet-stream;base64,"}],"accessors":[{"bufferView":0,"componentType":5126,"count":3273,"max":[100.91192626953125,3.1959691047668457,100.61190795898438],"min":[-100.68809509277344,-0.8040310144424438,-100.98809051513672],"type":"VEC3"},{"bufferView":1,"componentType":5126,"count":3273,"max":[0.8960281014442444,1,0.8745779991149902],"min":[-0.9574190378189087,0.19859838485717773,-0.9064190983772278],"type":"VEC3"}],"materials":[{"pbrMetallicRoughness":{"baseColorFactor":[0.5019607843137255,0.5019607843137255,0.5019607843137255,1],"metallicFactor":0,"roughnessFactor":1}}],"meshes":[{"primitives":[{"mode":4,"attributes":{"POSITION":0,"NORMAL":1},"material":0}]}]}